<?xml version="1.0" encoding="iso-8859-1"?>
<!-- Uploaded to: SVG Repo, www.svgrepo.com, Generator: SVG Repo Mixer Tools -->
<svg height="800px" width="800px" version="1.1" id="Layer_1" xmlns="http://www.w3.org/2000/svg" xmlns:xlink="http://www.w3.org/1999/xlink" 
	 viewBox="0 0 512 512" xml:space="preserve">
<path style="fill:#E21B1B;" d="M256,0C114.616,0,0,114.616,0,256s114.616,256,256,256s256-114.616,256-256S397.384,0,256,0z"/>
<path style="fill:#FFFFFF;" d="M374.54,114.2l-178.78,36.14V321.32c-10.54,-6.98 -22.94,-10.63 -35.59,-10.49c-30.22,0 -54.7,19.46 -54.7,43.49s24.48,43.49 54.7,43.49s54.7,-19.46 54.7,-43.49V221.89L353.74,200v100.24c-10.2,-6.24 -21.94,-9.5 -33.89,-9.42c-30.22,0 -54.7,19.46 -54.7,43.49s24.48,43.49 54.7,43.49s54.7,-19.46 54.7,-43.49c-0.02,-1.62 -0.14,-3.23 -0.36,-4.84h0.36L374.54,114.2z"/>
</svg>